<svg xmlns="http://www.w3.org/2000/svg" width="389" height="279" viewBox="0 0 389 279">
<g>
<path d="M 300.00 271.37 C300.00,271.69 298.64,272.65 296.98,273.51 L 293.96 275.07 L 291.98 270.45 C290.89,267.91 290.00,265.65 290.00,265.42 C290.00,265.19 288.70,262.19 287.10,258.75 C285.51,255.31 282.32,246.65 280.02,239.50 C277.71,232.35 275.43,225.60 274.94,224.50 C272.52,219.05 261.54,179.34 256.86,159.09 C255.76,154.37 254.21,147.80 253.42,144.50 C252.62,141.20 251.48,135.57 250.88,132.00 C249.83,125.66 247.46,120.46 244.51,118.01 C243.31,117.01 242.57,117.36 240.43,119.90 C237.54,123.33 235.87,123.75 234.00,121.50 C231.97,119.05 231.29,119.73 230.60,124.96 C229.80,130.96 226.02,136.00 222.31,136.00 C220.81,136.00 218.67,134.79 216.98,132.97 C213.84,129.62 213.50,129.80 212.46,135.37 C212.06,137.50 210.40,140.76 208.76,142.62 C204.98,146.93 200.98,147.16 197.39,143.29 C195.31,141.05 194.72,140.83 193.95,142.04 C193.45,142.84 193.02,143.78 193.02,144.11 C193.01,144.45 191.29,145.91 189.20,147.36 C184.74,150.45 178.42,150.95 176.52,148.36 C175.49,146.95 174.82,147.64 171.62,153.35 C167.20,161.25 164.54,162.52 159.78,158.99 L 156.71 156.73 L 151.30 159.61 C148.32,161.20 145.47,162.99 144.96,163.58 C144.45,164.18 143.37,168.01 142.57,172.08 C138.27,193.86 125.39,219.31 109.00,238.41 C102.68,245.78 89.75,257.81 85.00,260.74 C72.22,268.62 69.43,269.81 61.00,270.91 C53.77,271.86 50.84,271.90 45.76,271.11 C45.36,271.05 43.89,269.21 42.51,267.02 C40.42,263.70 40.00,261.83 40.02,255.77 C40.04,245.24 41.97,238.41 47.02,230.96 C52.81,222.43 64.04,209.49 69.98,204.50 C81.27,195.02 84.66,192.33 88.95,189.47 C91.45,187.80 96.65,184.23 100.50,181.53 C104.35,178.83 113.80,172.90 121.50,168.36 C129.20,163.81 136.11,159.73 136.85,159.28 C137.88,158.66 138.38,153.16 138.96,135.99 C139.75,112.73 140.57,108.00 143.85,108.00 C147.30,108.00 147.73,110.00 146.92,122.50 C145.90,138.38 145.81,154.25 146.75,153.83 C147.16,153.64 149.77,152.29 152.54,150.83 L 157.58 148.18 L 158.75 140.84 C159.39,136.80 160.21,130.91 160.57,127.75 C161.13,122.87 161.74,121.55 164.65,119.00 C168.08,115.99 171.35,115.15 172.49,116.99 C172.87,117.60 173.99,117.40 175.41,116.47 C180.47,113.15 182.65,117.06 181.55,127.42 C181.17,130.93 181.23,134.03 181.68,134.30 C182.14,134.58 184.41,133.69 186.73,132.32 C190.67,129.99 192.97,125.97 192.99,121.37 C193.00,119.46 195.80,117.80 197.88,118.46 C199.01,118.82 200.14,120.36 200.51,122.05 C200.87,123.67 201.61,125.00 202.16,125.00 C203.94,125.00 209.00,119.21 209.00,117.16 C209.00,111.80 213.49,110.00 216.42,114.19 C217.90,116.31 218.09,116.33 221.34,114.78 C224.88,113.09 226.00,110.36 226.00,103.39 C226.00,100.59 226.44,99.93 228.67,99.37 C230.70,98.86 231.75,99.20 233.04,100.81 C234.99,103.21 236.00,102.71 236.00,99.37 C236.00,96.61 238.82,94.88 241.97,95.70 C244.18,96.28 244.25,96.13 243.62,91.90 C240.75,72.68 239.88,62.41 239.33,41.50 C238.47,8.65 239.37,2.99 244.96,5.98 C247.06,7.10 251.33,18.36 253.50,28.50 C257.57,47.52 259.06,59.03 259.75,76.87 L 260.50 95.91 L 272.50 90.02 C279.10,86.77 287.65,82.60 291.50,80.74 C301.38,75.97 324.08,64.06 326.45,62.39 C329.38,60.34 331.54,60.69 332.77,63.40 C334.18,66.48 333.45,67.11 320.50,74.01 C307.69,80.84 271.06,99.07 264.38,101.94 L 259.26 104.13 L 258.47 110.82 C256.98,123.37 257.53,129.97 261.42,146.50 C263.50,155.30 266.03,166.10 267.05,170.50 C272.82,195.38 286.50,238.56 295.12,259.15 C297.80,265.55 300.00,271.05 300.00,271.37 ZM 48.04 262.07 C48.87,263.63 50.16,264.00 54.82,264.00 C57.98,264.00 62.80,263.42 65.53,262.71 C73.33,260.67 86.50,251.31 97.13,240.23 C114.52,222.12 124.46,205.79 131.46,183.82 C133.45,177.60 135.27,171.95 135.50,171.28 C136.44,168.53 133.83,169.34 125.15,174.46 C83.80,198.90 53.04,227.25 48.10,245.50 C46.72,250.58 46.69,259.55 48.04,262.07 ZM 249.69 82.70 C250.66,90.01 251.80,96.00 252.23,96.00 C254.19,96.00 252.12,58.43 249.45,45.77 C247.80,37.93 245.98,34.61 246.04,39.55 C246.13,47.40 248.11,70.80 249.69,82.70 ZM 166.52 137.43 C165.94,143.31 165.96,143.35 167.93,141.56 C169.93,139.75 172.30,132.81 173.33,125.75 C173.94,121.53 173.47,121.25 170.24,123.95 C167.91,125.90 167.50,127.39 166.52,137.43 ZM 201.48 135.93 C202.35,138.69 203.43,138.54 204.84,135.45 C206.90,130.93 206.11,129.85 202.66,132.46 C201.41,133.40 201.03,134.52 201.48,135.93 ZM 243.00 99.00 C243.59,100.10 244.28,101.00 244.54,101.00 C244.79,101.00 245.00,100.10 245.00,99.00 C245.00,97.87 244.33,97.00 243.46,97.00 C242.24,97.00 242.15,97.40 243.00,99.00 Z" fill="rgb(3,3,3)"/>
<path d="M 243.00 99.00 C242.15,97.40 242.24,97.00 243.46,97.00 C244.33,97.00 245.00,97.87 245.00,99.00 C245.00,100.10 244.79,101.00 244.54,101.00 C244.28,101.00 243.59,100.10 243.00,99.00 Z" fill="rgb(74,74,74)"/>
<path d="M 0.00 139.50 L 0.00 0.00 L 194.50 0.00 L 389.00 0.00 L 389.00 139.50 L 389.00 279.00 L 194.50 279.00 L 0.00 279.00 L 0.00 139.50 ZM 300.00 271.37 C300.00,271.05 297.80,265.55 295.12,259.15 C286.50,238.56 272.82,195.38 267.05,170.50 C266.03,166.10 263.50,155.30 261.42,146.50 C257.53,129.97 256.98,123.37 258.47,110.82 L 259.26 104.13 L 264.38 101.94 C271.06,99.07 307.69,80.84 320.50,74.01 C333.45,67.11 334.18,66.48 332.77,63.40 C331.54,60.69 329.38,60.34 326.45,62.39 C324.08,64.06 301.38,75.97 291.50,80.74 C287.65,82.60 279.10,86.77 272.50,90.02 L 260.50 95.91 L 259.75 76.87 C259.06,59.03 257.57,47.52 253.50,28.50 C251.33,18.36 247.06,7.10 244.96,5.98 C239.37,2.99 238.47,8.65 239.33,41.50 C239.88,62.41 240.75,72.68 243.62,91.90 C244.25,96.13 244.18,96.28 241.97,95.70 C238.82,94.88 236.00,96.61 236.00,99.37 C236.00,102.71 234.99,103.21 233.04,100.81 C231.75,99.20 230.70,98.86 228.67,99.37 C226.44,99.93 226.00,100.59 226.00,103.39 C226.00,110.36 224.88,113.09 221.34,114.78 C218.09,116.33 217.90,116.31 216.42,114.19 C213.49,110.00 209.00,111.80 209.00,117.16 C209.00,119.21 203.94,125.00 202.16,125.00 C201.61,125.00 200.87,123.67 200.51,122.05 C200.14,120.36 199.01,118.82 197.88,118.46 C195.80,117.80 193.00,119.46 192.99,121.37 C192.97,125.97 190.67,129.99 186.73,132.32 C184.41,133.69 182.14,134.58 181.68,134.30 C181.23,134.03 181.17,130.93 181.55,127.42 C182.65,117.06 180.47,113.15 175.41,116.47 C173.99,117.40 172.87,117.60 172.49,116.99 C171.35,115.15 168.08,115.99 164.65,119.00 C161.74,121.55 161.13,122.87 160.57,127.75 C160.21,130.91 159.39,136.80 158.75,140.84 L 157.58 148.18 L 152.54 150.83 C149.77,152.29 147.16,153.64 146.75,153.83 C145.81,154.25 145.90,138.38 146.92,122.50 C147.73,110.00 147.30,108.00 143.85,108.00 C140.57,108.00 139.75,112.73 138.96,135.99 C138.38,153.16 137.88,158.66 136.85,159.28 C136.11,159.73 129.20,163.81 121.50,168.36 C113.80,172.90 104.35,178.83 100.50,181.53 C96.65,184.23 91.45,187.80 88.95,189.47 C84.66,192.33 81.27,195.02 69.98,204.50 C64.04,209.49 52.81,222.43 47.02,230.96 C41.97,238.41 40.04,245.24 40.02,255.77 C40.00,261.83 40.42,263.70 42.51,267.02 C43.89,269.21 45.36,271.05 45.76,271.11 C50.84,271.90 53.77,271.86 61.00,270.91 C69.43,269.81 72.22,268.62 85.00,260.74 C89.75,257.81 102.68,245.78 109.00,238.41 C125.39,219.31 138.27,193.86 142.57,172.08 C143.37,168.01 144.45,164.18 144.96,163.58 C145.47,162.99 148.32,161.20 151.30,159.61 L 156.71 156.73 L 159.78 158.99 C164.54,162.52 167.20,161.25 171.62,153.35 C174.82,147.64 175.49,146.95 176.52,148.36 C178.42,150.95 184.74,150.45 189.20,147.36 C191.29,145.91 193.01,144.45 193.02,144.11 C193.02,143.78 193.45,142.84 193.95,142.04 C194.72,140.83 195.31,141.05 197.39,143.29 C200.98,147.16 204.98,146.93 208.76,142.62 C210.40,140.76 212.06,137.50 212.46,135.37 C213.50,129.80 213.84,129.62 216.98,132.97 C218.67,134.79 220.81,136.00 222.31,136.00 C226.02,136.00 229.80,130.96 230.60,124.96 C231.29,119.73 231.97,119.05 234.00,121.50 C235.87,123.75 237.54,123.33 240.43,119.90 C242.57,117.36 243.31,117.01 244.51,118.01 C247.46,120.46 249.83,125.66 250.88,132.00 C251.48,135.57 252.62,141.20 253.42,144.50 C254.21,147.80 255.76,154.37 256.86,159.09 C261.54,179.34 272.52,219.05 274.94,224.50 C275.43,225.60 277.71,232.35 280.02,239.50 C282.32,246.65 285.51,255.31 287.10,258.75 C288.70,262.19 290.00,265.19 290.00,265.42 C290.00,265.65 290.89,267.91 291.98,270.45 L 293.96 275.07 L 296.98 273.51 C298.64,272.65 300.00,271.69 300.00,271.37 ZM 48.04 262.07 C46.69,259.55 46.72,250.58 48.10,245.50 C53.04,227.25 83.80,198.90 125.15,174.46 C133.83,169.34 136.44,168.53 135.50,171.28 C135.27,171.95 133.45,177.60 131.46,183.82 C124.46,205.79 114.52,222.12 97.13,240.23 C86.50,251.31 73.33,260.67 65.53,262.71 C62.80,263.42 57.98,264.00 54.82,264.00 C50.16,264.00 48.87,263.63 48.04,262.07 ZM 166.52 137.43 C167.50,127.39 167.91,125.90 170.24,123.95 C173.47,121.25 173.94,121.53 173.33,125.75 C172.30,132.81 169.93,139.75 167.93,141.56 C165.96,143.35 165.94,143.31 166.52,137.43 ZM 201.48 135.93 C201.03,134.52 201.41,133.40 202.66,132.46 C206.11,129.85 206.90,130.93 204.84,135.45 C203.43,138.54 202.35,138.69 201.48,135.93 ZM 249.69 82.70 C248.11,70.80 246.13,47.40 246.04,39.55 C245.98,34.61 247.80,37.93 249.45,45.77 C252.12,58.43 254.19,96.00 252.23,96.00 C251.80,96.00 250.66,90.01 249.69,82.70 Z" fill="rgb(254,254,254)"/>
</g>
</svg>
